<svg xmlns="http://www.w3.org/2000/svg" xmlns:xlink="http://www.w3.org/1999/xlink" width="148" zoomAndPan="magnify" viewBox="0 0 110.88 30.000001" height="40" preserveAspectRatio="xMidYMid meet" version="1.0"><defs><g/><clipPath id="05622874bb"><path d="M 6 0.726562 L 106 0.726562 L 106 20.324219 L 6 20.324219 Z M 6 0.726562 " clip-rule="nonzero"/></clipPath></defs><g clip-path="url(#05622874bb)"><path fill="#ffffff" d="M 105.53125 17.96875 C 105.507812 16.628906 105.46875 15.257812 105.359375 13.917969 C 105.222656 12.523438 105.011719 11.199219 104.605469 9.851562 C 104.199219 8.535156 103.636719 7.195312 102.949219 6.011719 C 102.3125 4.925781 101.578125 4.003906 100.59375 3.238281 C 99.566406 2.433594 98.371094 1.84375 97.121094 1.457031 C 95.820312 1.054688 94.34375 0.804688 92.964844 0.765625 C 91.597656 0.710938 90.4375 0.90625 89.15625 1.339844 C 87.707031 1.835938 86.214844 2.5625 84.90625 3.347656 C 83.734375 4.058594 82.667969 4.878906 81.550781 5.664062 C 80.707031 6.25 79.773438 6.832031 78.828125 7.226562 C 78.109375 7.527344 77.40625 7.683594 76.621094 7.644531 C 75.753906 7.605469 74.832031 7.359375 74.007812 7.109375 C 72.960938 6.785156 71.921875 6.421875 70.855469 6.136719 C 69.660156 5.824219 68.40625 5.578125 67.171875 5.539062 C 65.957031 5.515625 64.699219 5.671875 63.558594 6.097656 C 62.382812 6.523438 61.492188 7.21875 60.757812 8.234375 C 60.003906 9.265625 59.378906 10.644531 59.003906 11.851562 C 58.847656 12.347656 58.730469 12.84375 58.652344 13.347656 C 58.613281 13.59375 58.589844 13.828125 58.558594 14.058594 C 58.230469 14.097656 57.707031 14.113281 57.507812 14.121094 C 56.15625 14.175781 54.789062 14.183594 53.433594 14.199219 C 45.875 14.328125 38.3125 14.460938 30.769531 14.585938 C 29.0625 14.609375 27.351562 14.640625 25.652344 14.648438 C 25.402344 14.648438 25.167969 14.664062 24.933594 14.648438 C 24.878906 14.648438 24.839844 14.648438 24.792969 14.648438 C 24.597656 14.625 24.410156 14.53125 24.230469 14.453125 C 23.75 14.230469 23.28125 13.996094 22.804688 13.78125 C 22.742188 13.757812 22.6875 13.726562 22.617188 13.703125 C 22.34375 13.601562 22.0625 13.570312 21.765625 13.546875 C 21.125 13.492188 20.449219 13.46875 19.792969 13.445312 L 18.871094 13.40625 C 18.871094 13.386719 18.878906 13.371094 18.878906 13.355469 L 18.878906 11.246094 C 19.324219 11.015625 19.628906 10.558594 19.628906 10.023438 C 19.628906 9.25 18.996094 8.628906 18.21875 8.628906 C 17.4375 8.628906 16.8125 9.257812 16.8125 10.023438 C 16.8125 10.558594 17.117188 11.015625 17.5625 11.246094 L 17.5625 13.355469 C 16 13.277344 14.441406 13.199219 12.886719 13.128906 C 12.894531 13.082031 12.902344 13.035156 12.902344 12.980469 L 12.902344 10.589844 C 13.347656 10.355469 13.652344 9.898438 13.652344 9.363281 C 13.652344 8.589844 13.019531 7.96875 12.242188 7.96875 C 11.460938 7.96875 10.835938 8.597656 10.835938 9.363281 C 10.835938 9.898438 11.140625 10.355469 11.585938 10.589844 L 11.585938 12.980469 C 11.585938 13.003906 11.59375 13.027344 11.59375 13.058594 L 11.4375 13.050781 L 10.414062 13.011719 C 9.753906 12.972656 9.082031 12.9375 8.441406 12.9375 C 8.035156 12.9375 7.597656 12.957031 7.394531 13.363281 C 7.339844 13.453125 7.316406 13.546875 7.300781 13.648438 C 7.277344 13.917969 7.285156 14.183594 7.199219 14.453125 C 7.097656 14.757812 6.867188 15.050781 6.734375 15.367188 C 6.539062 15.792969 6.539062 16.171875 6.671875 16.628906 C 6.765625 16.980469 6.945312 17.335938 7 17.699219 C 7.058594 18.023438 6.984375 18.402344 6.9375 18.746094 C 6.882812 19.09375 7.136719 19.417969 7.496094 19.472656 C 7.847656 19.535156 8.175781 19.289062 8.246094 18.9375 C 8.308594 18.457031 8.378906 17.984375 8.300781 17.503906 C 8.238281 17.046875 8.066406 16.699219 7.949219 16.265625 C 7.894531 16.113281 7.886719 16.035156 7.949219 15.886719 C 8.050781 15.65625 8.214844 15.429688 8.316406 15.199219 C 8.371094 15.097656 8.417969 14.972656 8.457031 14.855469 C 8.519531 14.648438 8.558594 14.4375 8.589844 14.222656 C 8.652344 14.238281 8.722656 14.238281 8.777344 14.238281 C 9.300781 14.253906 9.84375 14.277344 10.367188 14.300781 C 13.496094 14.453125 16.609375 14.601562 19.738281 14.742188 C 20.378906 14.777344 21.050781 14.800781 21.710938 14.839844 C 21.84375 14.855469 22.054688 14.863281 22.1875 14.917969 C 22.226562 14.933594 22.25 14.941406 22.289062 14.957031 C 22.773438 15.183594 23.234375 15.429688 23.71875 15.648438 C 24.035156 15.785156 24.316406 15.894531 24.652344 15.949219 C 24.964844 15.988281 25.371094 15.964844 25.691406 15.964844 C 27.398438 15.949219 29.109375 15.925781 30.816406 15.902344 C 38.375 15.769531 45.9375 15.640625 53.496094 15.515625 C 54.464844 15.5 55.453125 15.492188 56.4375 15.460938 C 57 15.445312 57.582031 15.4375 58.160156 15.40625 C 58.714844 15.367188 59.496094 15.351562 59.777344 14.777344 C 59.832031 14.664062 59.855469 14.554688 59.871094 14.429688 C 59.964844 13.648438 60.058594 12.996094 60.292969 12.230469 C 60.625 11.160156 61.1875 9.898438 61.859375 8.984375 C 62.453125 8.179688 63.132812 7.652344 64.066406 7.304688 C 65.035156 6.941406 66.132812 6.808594 67.171875 6.832031 C 68.304688 6.871094 69.457031 7.09375 70.550781 7.390625 C 71.597656 7.675781 72.632812 8.023438 73.664062 8.34375 C 74.613281 8.628906 75.613281 8.890625 76.597656 8.9375 C 77.585938 8.976562 78.46875 8.800781 79.382812 8.417969 C 80.425781 7.992188 81.417969 7.367188 82.339844 6.722656 C 83.445312 5.957031 84.484375 5.152344 85.625 4.453125 C 86.847656 3.710938 88.253906 3.019531 89.609375 2.5625 C 90.75 2.175781 91.753906 2.007812 92.964844 2.046875 C 94.21875 2.082031 95.570312 2.316406 96.765625 2.679688 C 97.855469 3.027344 98.910156 3.539062 99.820312 4.246094 C 100.671875 4.917969 101.304688 5.714844 101.84375 6.652344 C 102.484375 7.746094 103.019531 9 103.386719 10.210938 C 103.769531 11.472656 103.980469 12.710938 104.082031 14.027344 C 104.199219 15.34375 104.222656 16.667969 104.253906 17.984375 C 104.269531 18.535156 104.269531 19.078125 104.269531 19.644531 C 104.269531 19.992188 104.574219 20.277344 104.925781 20.277344 C 105.292969 20.277344 105.585938 19.992188 105.585938 19.644531 C 105.546875 19.085938 105.546875 18.527344 105.53125 17.96875 Z M 105.53125 17.96875 " fill-opacity="1" fill-rule="evenodd"/></g><g fill="#ffffff" fill-opacity="1"><g transform="translate(3.550438, 28.192245)"><g><path d="M 9 0 L 8.96875 -4.75 L 6.65625 -0.890625 L 5.53125 -0.890625 L 3.234375 -4.625 L 3.234375 0 L 0.890625 0 L 0.890625 -8.96875 L 2.984375 -8.96875 L 6.140625 -3.796875 L 9.21875 -8.96875 L 11.296875 -8.96875 L 11.328125 0 Z M 9 0 "/></g></g></g><g fill="#ffffff" fill-opacity="1"><g transform="translate(15.766902, 28.192245)"><g><path d="M 0.78125 -6.9375 L 3.21875 -6.9375 L 3.21875 0 L 0.78125 0 Z M 2 -7.71875 C 1.550781 -7.71875 1.191406 -7.835938 0.921875 -8.078125 C 0.648438 -8.328125 0.515625 -8.632812 0.515625 -9 C 0.515625 -9.375 0.648438 -9.679688 0.921875 -9.921875 C 1.191406 -10.171875 1.550781 -10.296875 2 -10.296875 C 2.445312 -10.296875 2.804688 -10.175781 3.078125 -9.9375 C 3.347656 -9.707031 3.484375 -9.410156 3.484375 -9.046875 C 3.484375 -8.660156 3.347656 -8.34375 3.078125 -8.09375 C 2.804688 -7.84375 2.445312 -7.71875 2 -7.71875 Z M 2 -7.71875 "/></g></g></g><g fill="#ffffff" fill-opacity="1"><g transform="translate(19.775029, 28.192245)"><g><path d="M 5.296875 -7.0625 C 6.160156 -7.0625 6.851562 -6.800781 7.375 -6.28125 C 7.90625 -5.769531 8.171875 -5 8.171875 -3.96875 L 8.171875 0 L 5.734375 0 L 5.734375 -3.578125 C 5.734375 -4.523438 5.351562 -5 4.59375 -5 C 4.175781 -5 3.84375 -4.859375 3.59375 -4.578125 C 3.34375 -4.304688 3.21875 -3.898438 3.21875 -3.359375 L 3.21875 0 L 0.78125 0 L 0.78125 -6.9375 L 3.09375 -6.9375 L 3.09375 -6.1875 C 3.375 -6.46875 3.703125 -6.679688 4.078125 -6.828125 C 4.453125 -6.984375 4.859375 -7.0625 5.296875 -7.0625 Z M 5.296875 -7.0625 "/></g></g></g><g fill="#ffffff" fill-opacity="1"><g transform="translate(28.687668, 28.192245)"><g><path d="M 5.296875 -7.0625 C 6.160156 -7.0625 6.851562 -6.800781 7.375 -6.28125 C 7.90625 -5.769531 8.171875 -5 8.171875 -3.96875 L 8.171875 0 L 5.734375 0 L 5.734375 -3.578125 C 5.734375 -4.523438 5.351562 -5 4.59375 -5 C 4.175781 -5 3.84375 -4.859375 3.59375 -4.578125 C 3.34375 -4.304688 3.21875 -3.898438 3.21875 -3.359375 L 3.21875 0 L 0.78125 0 L 0.78125 -9.5 L 3.21875 -9.5 L 3.21875 -6.296875 C 3.476562 -6.546875 3.785156 -6.734375 4.140625 -6.859375 C 4.503906 -6.992188 4.890625 -7.0625 5.296875 -7.0625 Z M 5.296875 -7.0625 "/></g></g></g><g fill="#ffffff" fill-opacity="1"><g transform="translate(37.600307, 28.192245)"><g><path d="M 3.734375 -7.0625 C 4.890625 -7.0625 5.769531 -6.796875 6.375 -6.265625 C 6.988281 -5.742188 7.296875 -4.941406 7.296875 -3.859375 L 7.296875 0 L 5.015625 0 L 5.015625 -0.890625 C 4.671875 -0.222656 3.988281 0.109375 2.96875 0.109375 C 2.4375 0.109375 1.972656 0.015625 1.578125 -0.171875 C 1.179688 -0.359375 0.882812 -0.609375 0.6875 -0.921875 C 0.488281 -1.242188 0.390625 -1.613281 0.390625 -2.03125 C 0.390625 -2.6875 0.640625 -3.191406 1.140625 -3.546875 C 1.640625 -3.910156 2.414062 -4.09375 3.46875 -4.09375 L 4.859375 -4.09375 C 4.816406 -4.832031 4.320312 -5.203125 3.375 -5.203125 C 3.050781 -5.203125 2.71875 -5.144531 2.375 -5.03125 C 2.03125 -4.925781 1.738281 -4.78125 1.5 -4.59375 L 0.671875 -6.25 C 1.054688 -6.507812 1.523438 -6.707031 2.078125 -6.84375 C 2.628906 -6.988281 3.179688 -7.0625 3.734375 -7.0625 Z M 3.65625 -1.421875 C 3.9375 -1.421875 4.179688 -1.488281 4.390625 -1.625 C 4.609375 -1.757812 4.765625 -1.960938 4.859375 -2.234375 L 4.859375 -2.828125 L 3.8125 -2.828125 C 3.09375 -2.828125 2.734375 -2.59375 2.734375 -2.125 C 2.734375 -1.914062 2.816406 -1.742188 2.984375 -1.609375 C 3.148438 -1.484375 3.375 -1.421875 3.65625 -1.421875 Z M 3.65625 -1.421875 "/></g></g></g><g fill="#ffffff" fill-opacity="1"><g transform="translate(45.642171, 28.192245)"><g><path d="M 3.3125 0.109375 C 2.726562 0.109375 2.15625 0.046875 1.59375 -0.078125 C 1.03125 -0.210938 0.578125 -0.390625 0.234375 -0.609375 L 0.96875 -2.265625 C 1.28125 -2.066406 1.648438 -1.910156 2.078125 -1.796875 C 2.515625 -1.679688 2.945312 -1.625 3.375 -1.625 C 3.769531 -1.625 4.050781 -1.664062 4.21875 -1.75 C 4.382812 -1.832031 4.46875 -1.945312 4.46875 -2.09375 C 4.46875 -2.25 4.367188 -2.359375 4.171875 -2.421875 C 3.972656 -2.492188 3.65625 -2.554688 3.21875 -2.609375 C 2.664062 -2.679688 2.191406 -2.769531 1.796875 -2.875 C 1.410156 -2.988281 1.078125 -3.195312 0.796875 -3.5 C 0.515625 -3.800781 0.375 -4.21875 0.375 -4.75 C 0.375 -5.195312 0.503906 -5.59375 0.765625 -5.9375 C 1.035156 -6.28125 1.421875 -6.550781 1.921875 -6.75 C 2.429688 -6.957031 3.039062 -7.0625 3.75 -7.0625 C 4.257812 -7.0625 4.757812 -7.007812 5.25 -6.90625 C 5.75 -6.800781 6.164062 -6.65625 6.5 -6.46875 L 5.765625 -4.8125 C 5.148438 -5.15625 4.484375 -5.328125 3.765625 -5.328125 C 3.378906 -5.328125 3.097656 -5.28125 2.921875 -5.1875 C 2.742188 -5.101562 2.65625 -4.988281 2.65625 -4.84375 C 2.65625 -4.675781 2.75 -4.5625 2.9375 -4.5 C 3.132812 -4.4375 3.460938 -4.375 3.921875 -4.3125 C 4.492188 -4.21875 4.96875 -4.113281 5.34375 -4 C 5.71875 -3.894531 6.039062 -3.691406 6.3125 -3.390625 C 6.59375 -3.097656 6.734375 -2.691406 6.734375 -2.171875 C 6.734375 -1.734375 6.597656 -1.335938 6.328125 -0.984375 C 6.066406 -0.640625 5.675781 -0.367188 5.15625 -0.171875 C 4.644531 0.015625 4.03125 0.109375 3.3125 0.109375 Z M 3.3125 0.109375 "/></g></g></g><g fill="#ffffff" fill-opacity="1"><g transform="translate(54.471294, 28.409739)"><g><path d="M 5.671875 0.1875 C 4.679688 0.1875 3.789062 -0.0195312 3 -0.4375 C 2.207031 -0.851562 1.582031 -1.4375 1.125 -2.1875 C 0.675781 -2.9375 0.453125 -3.785156 0.453125 -4.734375 C 0.453125 -5.679688 0.675781 -6.53125 1.125 -7.28125 C 1.582031 -8.03125 2.207031 -8.613281 3 -9.03125 C 3.789062 -9.445312 4.679688 -9.65625 5.671875 -9.65625 C 6.535156 -9.65625 7.3125 -9.5 8 -9.1875 C 8.695312 -8.882812 9.28125 -8.445312 9.75 -7.875 L 8.03125 -6.328125 C 7.425781 -7.066406 6.6875 -7.4375 5.8125 -7.4375 C 5.289062 -7.4375 4.828125 -7.320312 4.421875 -7.09375 C 4.023438 -6.875 3.71875 -6.554688 3.5 -6.140625 C 3.28125 -5.734375 3.171875 -5.265625 3.171875 -4.734375 C 3.171875 -4.203125 3.28125 -3.726562 3.5 -3.3125 C 3.71875 -2.90625 4.023438 -2.585938 4.421875 -2.359375 C 4.828125 -2.140625 5.289062 -2.03125 5.8125 -2.03125 C 6.6875 -2.03125 7.425781 -2.398438 8.03125 -3.140625 L 9.75 -1.59375 C 9.28125 -1.019531 8.695312 -0.578125 8 -0.265625 C 7.3125 0.0351562 6.535156 0.1875 5.671875 0.1875 Z M 5.671875 0.1875 "/></g></g></g><g fill="#ffffff" fill-opacity="1"><g transform="translate(64.457752, 28.409739)"><g><path d="M 0.953125 -9.46875 L 3.625 -9.46875 L 3.625 0 L 0.953125 0 Z M 0.953125 -9.46875 "/></g></g></g><g fill="#ffffff" fill-opacity="1"><g transform="translate(69.04503, 28.409739)"><g><path d="M 3.625 -7.40625 L 3.625 -5.3125 L 7.8125 -5.3125 L 7.8125 -3.25 L 3.625 -3.25 L 3.625 0 L 0.953125 0 L 0.953125 -9.46875 L 8.375 -9.46875 L 8.375 -7.40625 Z M 3.625 -7.40625 "/></g></g></g><g fill="#ffffff" fill-opacity="1"><g transform="translate(77.732439, 28.409739)"><g><path d="M 5.09375 -2.515625 L 3.625 -2.515625 L 3.625 0 L 0.953125 0 L 0.953125 -9.46875 L 5.28125 -9.46875 C 6.132812 -9.46875 6.875 -9.328125 7.5 -9.046875 C 8.132812 -8.765625 8.625 -8.359375 8.96875 -7.828125 C 9.3125 -7.296875 9.484375 -6.675781 9.484375 -5.96875 C 9.484375 -5.28125 9.320312 -4.679688 9 -4.171875 C 8.6875 -3.660156 8.226562 -3.265625 7.625 -2.984375 L 9.671875 0 L 6.8125 0 Z M 6.78125 -5.96875 C 6.78125 -6.40625 6.640625 -6.742188 6.359375 -6.984375 C 6.078125 -7.234375 5.660156 -7.359375 5.109375 -7.359375 L 3.625 -7.359375 L 3.625 -4.59375 L 5.109375 -4.59375 C 5.660156 -4.59375 6.078125 -4.707031 6.359375 -4.9375 C 6.640625 -5.175781 6.78125 -5.519531 6.78125 -5.96875 Z M 6.78125 -5.96875 "/></g></g></g><g fill="#ffffff" fill-opacity="1"><g transform="translate(87.745962, 28.409739)"><g><path d="M 7.296875 -1.84375 L 3.28125 -1.84375 L 2.546875 0 L -0.1875 0 L 3.984375 -9.46875 L 6.625 -9.46875 L 10.828125 0 L 8.03125 0 Z M 6.515625 -3.8125 L 5.296875 -6.84375 L 4.078125 -3.8125 Z M 6.515625 -3.8125 "/></g></g></g><g fill="#ffffff" fill-opacity="1"><g transform="translate(98.381947, 28.409739)"><g><path d="M 4.28125 0.1875 C 3.507812 0.1875 2.757812 0.09375 2.03125 -0.09375 C 1.3125 -0.28125 0.726562 -0.535156 0.28125 -0.859375 L 1.15625 -2.828125 C 1.582031 -2.546875 2.078125 -2.316406 2.640625 -2.140625 C 3.203125 -1.972656 3.753906 -1.890625 4.296875 -1.890625 C 5.316406 -1.890625 5.828125 -2.148438 5.828125 -2.671875 C 5.828125 -2.941406 5.679688 -3.140625 5.390625 -3.265625 C 5.097656 -3.398438 4.628906 -3.539062 3.984375 -3.6875 C 3.265625 -3.832031 2.664062 -3.992188 2.1875 -4.171875 C 1.707031 -4.347656 1.296875 -4.628906 0.953125 -5.015625 C 0.617188 -5.410156 0.453125 -5.9375 0.453125 -6.59375 C 0.453125 -7.164062 0.609375 -7.679688 0.921875 -8.140625 C 1.234375 -8.609375 1.703125 -8.976562 2.328125 -9.25 C 2.960938 -9.519531 3.734375 -9.65625 4.640625 -9.65625 C 5.265625 -9.65625 5.878906 -9.582031 6.484375 -9.4375 C 7.085938 -9.300781 7.617188 -9.097656 8.078125 -8.828125 L 7.25 -6.84375 C 6.351562 -7.332031 5.476562 -7.578125 4.625 -7.578125 C 4.09375 -7.578125 3.703125 -7.5 3.453125 -7.34375 C 3.210938 -7.1875 3.09375 -6.976562 3.09375 -6.71875 C 3.09375 -6.46875 3.238281 -6.28125 3.53125 -6.15625 C 3.820312 -6.03125 4.285156 -5.898438 4.921875 -5.765625 C 5.648438 -5.609375 6.25 -5.441406 6.71875 -5.265625 C 7.1875 -5.085938 7.59375 -4.804688 7.9375 -4.421875 C 8.289062 -4.046875 8.46875 -3.53125 8.46875 -2.875 C 8.46875 -2.300781 8.304688 -1.785156 7.984375 -1.328125 C 7.671875 -0.867188 7.195312 -0.5 6.5625 -0.21875 C 5.9375 0.0507812 5.175781 0.1875 4.28125 0.1875 Z M 4.28125 0.1875 "/></g></g></g></svg>